<?xml version="1.0" encoding="UTF-8"?>
<svg width="187px" height="184px" viewBox="0 0 187 184" version="1.1" xmlns="http://www.w3.org/2000/svg" xmlns:xlink="http://www.w3.org/1999/xlink">
    <!-- Generator: Sketch 64 (93537) - https://sketch.com -->
    <title>Page 1</title>
    <desc>Created with Sketch.</desc>
    <g id="Page-1" stroke="none" stroke-width="1" fill="none" fill-rule="evenodd">
        <g id="Artboard" transform="translate(-738.000000, -103.000000)">
            <g id="mobile-post-colour" transform="translate(739.000000, 104.000000)">
                <path d="M184,182 L184,69.1821192 C154.638298,62.5128311 124.297872,59 93.2185106,59 C61.3023404,59 30.1348936,62.6910182 0,69.7294081 L0,181.987272 L184,182 Z" id="Path" fill="#E0E0E0" fill-rule="nonzero"></path>
                <path d="M83.8172555,183 C85.152892,174.752475 88.1103728,149.247525 73.6044065,149 C72.1733674,153.490099 69.2588178,172.722772 70.1746828,183 L83.8172555,183 Z" id="Path" fill="#E49D75" fill-rule="nonzero"></path>
                <path d="M17.9806416,162.359074 C18.5550998,162.914761 18.6684164,163.891267 19.4067373,164.240015 C20.1373206,164.540909 19.7413403,164.941488 20.5368073,165.014958 C28.6708168,166.175749 34.7827968,169.314251 42.859435,170.750912 C45.1336734,171.159023 47.4240183,171.582085 49.5719225,172.40152 C50.6673527,172.822447 51.7197874,173.345586 52.7937296,173.786462 C58.9689045,176.299685 65.9504846,176.135567 72.6877261,175.924162 C74.0061736,175.883884 75.3729579,175.833621 76.5626641,175.322272 C77.4515852,174.945616 78.2654274,174.229983 78.346268,173.327622 C78.486393,171.759707 76.5667642,170.835513 75.033726,170.160467 C71.3742991,168.558796 68.1850996,165.952449 66.2581657,162.647782 C65.9146436,162.064607 65.6356301,161.279508 66.1191223,160.785819 C66.4817411,160.416799 67.0966535,160.414122 67.6363731,160.433901 C69.8919183,160.51465 72.1474961,160.49237 74.4031063,160.367061 C75.571191,160.299409 77.1180301,159.78546 76.9330883,158.716171 C76.8526768,158.257549 76.4446335,157.91618 76.0580586,157.617178 C74.0258595,156.032467 71.7197845,154.400479 69.0641034,154.448636 C67.6704749,154.473981 66.3411436,154.967923 65.0360034,155.384587 C58.0054428,157.600165 50.4358157,157.724577 43.0166127,157.681937 C41.2014152,157.682482 39.3728018,157.650626 37.5953056,157.307175 C36.1353576,156.987121 34.7051562,156.559965 33.3181797,156.029733 C28.818281,154.438285 24.299589,152.836872 20.1328582,150.602222 C18.4763675,149.715338 16.6292714,148.688924 14.7817076,149.145632 C13.9527767,149.39576 12.204439,151.060926 11.5853994,151.630681 C11.3594568,151.820207 11.2340679,152.01823 11.0751715,152.104431 C9.68706208,152.857478 10.6297256,150.097906 11.1903147,152.638536 C11.8257694,155.614561 15.7955541,160.240984 17.9806416,162.359074 Z" id="Path" fill="#E49D75" fill-rule="nonzero" transform="translate(44.353517, 162.533325) scale(-1, 1) rotate(-50.000000) translate(-44.353517, -162.533325) "></path>
                <path d="M92.6445912,116.248945 C107.194726,119.402838 101.057604,150.375943 98.596919,155.119084 C93.7630841,159.020859 76.3097308,156.737853 70.0753482,149.332846 C69.1416497,145.613121 76.8981553,112.834277 92.6445912,116.248945 Z" id="Path" fill="#FFC78E" fill-rule="nonzero"></path>
                <path d="M127.960718,1 C127.988615,1.27884932 128.001671,1.55902528 128,1.83930463 L128,6.8056042 C128.001126,8.97843589 127.152338,11.062725 125.640324,12.599615 C124.128311,14.1365049 122.077031,15 119.938072,15 L70.0715347,15 C67.9312803,15.0013162 65.8782411,14.1385624 64.3643941,12.6016725 C62.850547,11.0647827 62,8.97975343 62,6.8056042 L62,1.83930463 C62,1.58602335 62,1.34267467 62.0342221,1.09435969" id="Path" fill="#6BD5E1" fill-rule="nonzero"></path>
                <path d="M145.664728,182 C147.134794,165.167151 144.919895,108 115.121657,108 C84.588386,108 75.2142651,146.872489 78.6836209,182 L145.664728,182 Z" id="Path" fill="#FFD98E" fill-rule="nonzero"></path>
                <path d="M163,182.995071 C162.124014,174.83284 156.936231,151.770596 155.106394,148 C155.106394,148 134,151.943107 134,153.362625 C134,154.609632 139.153717,176.035488 141.299883,183 L163,182.995071 Z" id="Path" fill="#E49D75" fill-rule="nonzero"></path>
                <path d="M134.288668,115.519641 C148.36505,110.749488 158.718472,140.252322 159,145.553574 C156.815734,151.346946 140.695849,158.34382 131.614155,155.235181 C128.94935,152.545575 119.071613,120.674719 134.288668,115.519641 Z" id="Path" fill="#FFE4AD" fill-rule="nonzero"></path>
                <path d="M125,88 C124.213261,90.6763255 121.234537,106.120443 123.367145,114.257454 C121.853043,116.265926 106.796141,116.766816 105,114.537364 C105.989609,110.967293 107.637308,100.821809 106.979218,97.2517382 C106.321128,93.6816672 125,88 125,88 Z" id="Path" fill="#D38D6A" fill-rule="nonzero"></path>
                <ellipse id="Oval" fill="#E49D75" fill-rule="nonzero" cx="108.5" cy="82" rx="20.5" ry="23"></ellipse>
                <path d="M93.3183134,74.1499077 C95.9935809,74.2034581 111.151794,72.9912708 113.272373,73.9308377 C115.392952,74.8704046 115.726746,78.8477422 119.958087,79.2371999 C123.129138,79.524425 125.804405,85.0790666 128.327502,88 C128.774253,86.0727483 129,84.1015804 129,82.1240557 C129,69.3547087 119.879547,59 108.623789,59 C100.313279,59 93.171051,64.6422696 90,72.733255 C90.8992692,73.5844593 92.0768041,74.0871719 93.3183134,74.1499077 L93.3183134,74.1499077 Z" id="Path" fill="#FD8369" fill-rule="nonzero"></path>
                <ellipse id="Oval" fill="#E49D75" fill-rule="nonzero" cx="125" cy="83.5" rx="5" ry="6.5"></ellipse>
                <path d="M0,182 L0,35.5 C0.00913772055,24.0662045 2.67580439,15.5662045 8,10 C13.3241956,4.4337955 21.6575289,1.4337955 33,1 L152,1 C163.463364,0.252225171 171.963364,3.25222517 177.5,10 C183.036636,16.7477748 185.203302,26.7477748 184,40 L184,182 L0,182 Z" id="Path-2" stroke="#4FE0E0" stroke-width="2"></path>
            </g>
            <g id="Group-2" transform="translate(742.000000, 187.000000)">
                <rect id="Rectangle" fill="#F2B185" fill-rule="nonzero" x="0" y="25.4766456" width="89" height="2"></rect>
                <g id="Group" transform="translate(32.000000, 0.476646)" fill="#FED385">
                    <rect id="Rectangle" x="3.29411765" y="0" width="9.88235294" height="6.38596491" rx="3"></rect>
                    <rect id="Rectangle" x="0" y="5.01754386" width="16" height="20.9824561" rx="5"></rect>
                </g>
                <g id="Group-3" transform="translate(57.000000, 5.476646)" fill="#ED8A70">
                    <rect id="Rectangle" x="0" y="5.02173913" width="11" height="15.9782609" rx="4"></rect>
                    <rect id="Rectangle" x="4.58333333" y="1.82608696" width="1.83333333" height="3.19565217"></rect>
                    <ellipse id="Oval" cx="5.5" cy="1.36956522" rx="1" ry="1.36956522"></ellipse>
                    <rect id="Rectangle" x="1.83333333" y="2.73913043" width="7.33333333" height="2.73913043" rx="1.36956522"></rect>
                </g>
            </g>
            <rect id="Rectangle" fill="#F2B185" fill-rule="nonzero" x="742" y="212" width="89" height="2"></rect>
            <g id="Group-4" transform="translate(753.000000, 225.000000)" fill="#74D5DE">
                <path d="M9.69951409,3.99232853 C13.4366763,3.98644798 16.4710119,7.01124939 16.4768925,10.7484116 C16.4769036,10.7554851 16.4769036,10.7625586 16.4768926,10.7696322 L16.4582287,22.7145985 C16.4523657,26.4669375 13.4119768,29.5073599 9.65963795,29.5132644 C5.92247578,29.5191449 2.88814013,26.4943435 2.88225958,22.7571813 C2.88224845,22.7501078 2.88224841,22.7430343 2.88225947,22.7359607 L2.90092333,10.7909944 C2.90678631,7.03865542 5.9471752,3.99823295 9.69951409,3.99232853 Z" id="Rectangle" transform="translate(9.679576, 16.752796) rotate(-12.000000) translate(-9.679576, -16.752796) "></path>
                <path d="M6.96920671,0.797746546 C8.21492744,0.795786365 9.22637265,1.8040535 9.22833284,3.04977422 C9.22833655,3.05213207 9.22833656,3.05448991 9.22833288,3.05684776 L9.22757082,3.54456556 C9.22561649,4.79534521 8.21215353,5.80881937 6.9613739,5.81078751 C5.71565318,5.81274769 4.70420796,4.80448056 4.70224778,3.55875983 C4.70224407,3.55640199 4.70224405,3.55404414 4.70224774,3.5516863 L4.70300979,3.0639685 C4.70496412,1.81318885 5.71842708,0.799714688 6.96920671,0.797746546 Z" id="Rectangle" transform="translate(6.965290, 3.304267) rotate(-12.000000) translate(-6.965290, -3.304267) "></path>
            </g>
        </g>
    </g>
</svg>
