<?xml version="1.0" encoding="UTF-8"?>
<svg width="473px" height="538px" viewBox="0 0 473 538" version="1.1" xmlns="http://www.w3.org/2000/svg" xmlns:xlink="http://www.w3.org/1999/xlink">
    <!-- Generator: Sketch 64 (93537) - https://sketch.com -->
    <title>shipping-package-colour</title>
    <desc>Created with Sketch.</desc>
    <g id="Page-1" stroke="none" stroke-width="1" fill="none" fill-rule="evenodd">
        <g id="Artboard" transform="translate(-451.000000, -453.000000)">
            <g id="shipping-package-colour" transform="translate(437.000000, 430.000000)">
                <line x1="202.5" y1="400.78" x2="328.5" y2="256.5" id="Path" stroke="#FED385" stroke-width="5" stroke-linecap="round"></line>
                <line x1="202.5" y1="400.78" x2="239.5" y2="210.5" id="Path" stroke="#FED385" stroke-width="5" stroke-linecap="round"></line>
                <g id="Group-2" transform="translate(158.000000, 0.000000)" fill="#FD8369" fill-rule="nonzero">
                    <ellipse id="Oval" transform="translate(108.495373, 121.822478) rotate(-70.010000) translate(-108.495373, -121.822478) " cx="108.495373" cy="121.822478" rx="101" ry="78.71"></ellipse>
                    <path d="M83.3428674,206.757494 L96.3428674,225.657494 C97.1109982,226.787392 97.2227647,228.239751 96.6365572,229.473872 C96.0503497,230.707993 94.8539886,231.538991 93.4928674,231.657494 L70.6428674,233.547494 C69.2754711,233.653467 67.9549445,233.024014 67.1762045,231.895047 C66.3974644,230.76608 66.2781075,229.308083 66.8628674,228.067494 L76.7128674,207.327494 C77.2939436,206.083397 78.4950925,205.244246 79.863155,205.12663 C81.2312176,205.009014 82.5579702,205.630833 83.3428674,206.757494 Z" id="Path" transform="translate(81.752162, 219.335758) rotate(19.000000) translate(-81.752162, -219.335758) "></path>
                </g>
                <ellipse id="Oval" fill="#74D5DE" fill-rule="nonzero" transform="translate(387.981859, 154.059677) rotate(-64.050000) translate(-387.981859, -154.059677) " cx="387.981859" cy="154.059677" rx="112" ry="94.5"></ellipse>
                <g id="Group" transform="translate(140.843503, 167.991796) rotate(-35.000000) translate(-140.843503, -167.991796) translate(46.843503, 57.991796)" fill="#FED385" fill-rule="nonzero">
                    <ellipse id="Oval" transform="translate(94.440000, 110.340000) rotate(-73.120000) translate(-94.440000, -110.340000) " cx="94.44" cy="110.34" rx="93.44" ry="69.34"></ellipse>
                    <path d="M69.9705759,190.791954 L75.2105759,213.161954 C75.5201782,214.498308 75.0934082,215.898327 74.0909951,216.834737 C73.0885821,217.771148 71.6627816,218.10172 70.3505759,217.701954 L48.3505759,211.031954 C47.0366741,210.634139 46.0350858,209.565171 45.7235351,208.228186 C45.4119845,206.8912 45.8378686,205.489596 46.8405759,204.551954 L63.6005759,188.861954 C64.6016415,187.92133 66.0289073,187.587078 67.3435384,187.985388 C68.6581696,188.383699 69.6599111,189.453898 69.9705759,190.791954 L69.9705759,190.791954 Z" id="Path"></path>
                </g>
                <line x1="202.5" y1="400.78" x2="143.5" y2="191.5" id="Path" stroke="#FED385" stroke-width="5" stroke-linecap="round"></line>
                <path d="M342.913196,245.703124 L341.313196,268.603124 C341.223597,269.979918 340.402266,271.202815 339.161673,271.80657 C337.92108,272.410325 336.451947,272.302121 335.313196,271.523124 L316.313196,258.683124 C315.173742,257.915534 314.531191,256.597673 314.628196,255.22722 C314.7252,253.856768 315.54698,252.642557 316.783196,252.043124 L337.413196,241.983124 C338.645168,241.388604 340.100391,241.494348 341.233474,242.260724 C342.366557,243.0271 343.006398,244.338381 342.913196,245.703124 Z" id="Path" fill="#74D5DE" fill-rule="nonzero"></path>
                <g id="Box" transform="translate(13.600000, 366.930000)" fill-rule="nonzero">
                    <rect id="Rectangle" fill="#DE8E68" transform="translate(204.631695, 106.969366) rotate(-168.760000) translate(-204.631695, -106.969366) " x="112.631695" y="36.9693661" width="184" height="140"></rect>
                    <polygon id="Path" fill="#D37C59" points="314.4 116.07 308.4 56.07 135.4 22.07 142.315445 78.6133029"></polygon>
                    <rect id="Rectangle" fill="#D37C59" transform="translate(68.052965, 79.807796) rotate(-168.760000) translate(-68.052965, -79.807796) " x="13.0529647" y="9.80779611" width="110" height="140"></rect>
                    <polygon id="Path" fill="#DE8E68" points="0.4 51.3739773 27.4 0.07 135.4 21.7745455 106.878634 72.57"></polygon>
                    <g id="address" transform="translate(164.400000, 103.070000)">
                        <rect id="Rectangle" fill="#FED385" transform="translate(43.020000, 29.535000) rotate(-168.760000) translate(-43.020000, -29.535000) " x="4" y="8" width="78.04" height="43.07"></rect>
                        <rect id="Rectangle" fill="#FD8369" transform="translate(65.787862, 33.645524) rotate(-168.760000) translate(-65.787862, -33.645524) " x="56.9678619" y="18.0005238" width="17.64" height="31.29"></rect>
                        <rect id="Rectangle" fill="#FD8369" transform="translate(34.289232, 14.645948) rotate(-168.760000) translate(-34.289232, -14.645948) " x="12.249232" y="11.6659478" width="44.08" height="5.96"></rect>
                        <rect id="Rectangle" fill="#FD8369" transform="translate(32.290062, 24.647593) rotate(-168.760000) translate(-32.290062, -24.647593) " x="10.2500621" y="21.6675929" width="44.08" height="5.96"></rect>
                    </g>
                </g>
            </g>
        </g>
    </g>
</svg>
