<?xml version="1.0" encoding="UTF-8"?>
<svg width="16px" height="23px" viewBox="0 0 16 23" version="1.1" xmlns="http://www.w3.org/2000/svg" xmlns:xlink="http://www.w3.org/1999/xlink">
    <!-- Generator: Sketch 64 (93537) - https://sketch.com -->
    <title>Group Copy</title>
    <desc>Created with Sketch.</desc>
    <g id="Page-1" stroke="none" stroke-width="1" fill="none" fill-rule="evenodd">
        <rect id="Rectangle" fill="transparent" x="-7" y="-4" width="30" height="30"></rect>
        <g id="Artboard" transform="translate(-7.000000, -4.000000)" fill="#F2B02A">
            <g id="Group-Copy" transform="translate(7.000000, 4.000000)">
                <path d="M12,12.6272993 C10.7789611,11.5671106 9.61698429,12.6115067 11.2294046,13.4157365 C11.1604565,13.8224699 10.7558939,14.0167485 10.0162237,13.9988701 C10.7619776,13.4425541 10.0010146,13.0824534 10,12.6608213 C9.9989867,12.1621631 11.1934096,11.4804003 12,12.6272993" id="Fill-2"></path>
                <path d="M2.98813575,10.9631482 C2.57808659,10.7066466 2.22428625,10.3642221 2,10.0070969 C3.66666667,10.2113857 3.82076007,10.1827447 5.20358291,10 C5.66917187,10.4425413 6.26782,10.7089278 7,10.7991595 C5.97050482,10.9651759 5.2208357,10.9319726 4.75122897,10.6992963 C4.40451881,10.7340203 4.16510683,10.8409805 4.03252033,11.0204302 C4.73444886,11.1479206 5.24021554,11.3405502 5.54958404,11.5983191 C4.69238041,11.948094 3.96705426,12.0695013 3.37384194,11.9622877 C3.17200794,11.6961547 3.04343921,11.3631082 2.98813575,10.9631482" id="Fill-3"></path>
                <path d="M1.02077258,10 C1.44371661,10.1364136 1.54965025,10.2979727 1.9106679,10.0304888 C1.80895052,10.7421028 1.94782373,11.190319 2,11.761119 C1.83793733,11.8585573 1.69458434,11.9380795 1.56967751,12 C1.33066802,11.4081408 0.900609043,10.6748389 1.02077258,10" id="Fill-4"></path>
                <path d="M5.06022876,17.974195 C4.40660963,17.5459353 3.7597132,17.2930123 3.11910573,17.2158642 C2.70945526,17.1663316 2.30219025,17.1889061 1.89774444,17.2831496 C1.33217089,16.6604854 1.70820791,15.5159756 2.76800773,16.1281196 C2.88793188,16.1971584 3.00503683,16.2574304 3.11910573,16.3084972 C4.14615954,16.7676599 4.94377439,16.4919431 5.51216714,15.4815658 C4.65448178,15.7522417 3.99847719,15.6347662 3.54393648,15.1289201 C3.429217,15.0013627 3.28153464,14.9189545 3.11910573,14.865696 C2.87838999,14.7865753 2.6051451,14.7712334 2.35879098,14.7661924 C1.73293006,14.7534805 1.57809129,14.9134752 1.4199996,15.1896304 C1.28858182,15.4191022 1.03485443,15.5216741 0.652311578,15.4938394 C0.698502976,15.8618271 0.946808849,16.1044492 1.3972292,16.2219247 C1.45491423,17.053897 1.39245825,17.7889957 1.21007813,18.4276594 C0.877413321,19.5910178 0.305333939,20.6158603 1.22005374,21.8399291 C1.06087775,20.9001248 1.13417677,20.1680945 1.43973396,19.6433996 C1.45816714,21.3467949 1.49590096,22.6486693 3.11910573,22.9395089 C3.32295509,22.9758912 3.55174347,22.9964933 3.80850693,23 C6.77668377,19.6173183 11.9700716,21.5403227 10.5940884,15.6766278 C10.2865795,14.3664249 9.96779374,13.1235075 10.9094043,11.9204791 C11.7608007,10.8329538 13.0198958,11.2467482 13.0112214,12.7171649 C13.0040649,13.8682498 12.3890471,14.7607132 11.165734,15.3949934 C11.712007,15.421513 12.159825,15.2939557 12.5089712,15.0123212 C12.4803456,15.2900106 12.1546203,15.6849563 11.5320123,16.1971584 C13.8738945,15.2165884 14.2466786,13.2631193 13.4857133,10.9524018 C13.9142307,11.5016438 14.2521001,12.2255648 14.4993217,13.124165 C14.634643,12.0215169 14.3375434,10.8943216 13.607806,9.74279833 C14.0408775,10.0917182 14.6444017,10.7146015 15.0607749,11.6118867 C14.9625369,9.1948714 14.306966,7.01762895 12.3012184,6.26828408 C13.8084025,6.47978388 15.0412574,7.23285465 16,8.52793474 C14.859311,3.11967677 10.7829743,5.7657255 7.47953035,3.33205325 C10.4509601,4.53332825 12.4436961,3.33227242 15.1243152,5.23752394 C14.0814305,3.75286113 12.2886404,2.97195567 9.74616178,2.89480756 C10.8434786,2.69623884 11.9149889,2.74138802 12.9606927,3.03003592 C10.9506079,2.00256335 8.96893187,1.84278785 7.01609834,2.55114779 C8.14507683,1.54252389 9.73163209,1.25782106 11.775981,1.69725846 C9.09254265,0.0951201151 3.57061038,2.31071745 3.52333468,4.99797029 C2.74133383,1.18264549 7.45892855,2.02952135 9.21051505,0 C7.53591422,1.29990185 4.59441128,0.562830543 3.11910573,2.02294623 C2.68386566,2.45383596 2.37613986,3.07606179 2.26640818,3.9983324 C2.02786106,3.0962255 2.31216586,2.12990156 3.11910573,1.09936059 C3.1882844,1.01103477 3.2611497,0.922270609 3.33813537,0.833068105 C3.26288459,0.892463384 3.18980243,0.952297005 3.11910573,1.01278814 C1.36925412,2.50819032 0.995819441,4.30166474 1.99880168,6.39321142 C0.844450446,5.64057899 0.288201918,4.69661048 0.329839235,3.56108671 C-0.470377945,5.80145034 0.185409792,7.21049923 2.29763617,7.78845256 C1.48549163,7.38210995 0.963507148,6.81993692 0.731682713,6.1017143 C1.3844344,6.66739406 2.18031436,7.06518901 3.11910573,7.29487998 C3.23469266,7.32315301 3.35223133,7.34879599 3.47215548,7.37202809 C3.34442434,7.27164788 3.22688566,7.16272 3.11910573,7.0450253 C2.63810798,6.51945379 2.35575493,5.82139488 2.27182971,4.95106774 C2.50994311,5.3742865 2.79229617,5.74534262 3.11910573,6.06445527 C3.74518351,6.67550338 4.53434078,7.09565375 5.48636067,7.32512555 C4.91124524,6.33469283 4.84250029,5.13385617 5.28012584,3.72239639 C4.71954009,8.09901754 9.58460031,6.75265149 12.9557049,8.09572998 C10.3763599,7.55021393 8.50159636,7.4739425 7.33184799,7.86713487 C7.54957646,8.55686529 7.92387859,9.25623922 8.4551881,9.9650375 C8.18996707,9.88394431 7.90501168,9.69479994 7.6005388,9.3973852 C7.89221688,10.5872633 8.55147439,11.4225231 9.57809448,11.9027263 C9.70582563,12.8916248 9.58351601,13.8049094 9.21181621,14.6423609 C8.29644583,14.8955032 7.40102666,15.6358621 6.5255587,16.8634376 C6.83957347,17.0716498 7.19218949,17.5551405 7.58297306,18.3136905 C6.73439587,17.5882353 5.68196932,17.0883068 4.42547654,16.8141241 C4.72084126,17.227261 4.93249762,17.6140974 5.06022876,17.974195" id="Fill-5"></path>
            </g>
        </g>
    </g>
</svg>
